<svg width="60" height="25" viewBox="0 0 60 25" fill="none" xmlns="http://www.w3.org/2000/svg">
<path d="M2.82879 14.7037C2.24956 14.6498 1.57267 14.6229 0.798122 14.6229H0L4.39472 2.30758C4.59004 1.75529 4.6877 1.43537 4.6877 1.34781C4.6877 1.25352 4.68434 1.19627 4.6776 1.17606L4.6877 1.15586C5.12549 1.17606 5.59022 1.18616 6.08189 1.18616C6.486 1.18616 6.97094 1.17943 7.5367 1.16596L7.5468 1.18616C7.53333 1.2131 7.52659 1.25015 7.52659 1.29729C7.52659 1.42526 7.62762 1.76539 7.82968 2.31768L12.3153 14.6532C12.1806 14.6465 12.0223 14.6431 11.8405 14.6431C11.8405 14.6431 11.6654 14.6364 11.3151 14.6229C11.1468 14.6229 10.9952 14.6229 10.8605 14.6229H9.29459L8.34492 11.7133H3.77845L2.82879 14.7037ZM7.5569 9.28862L6.03138 4.59081L4.54627 9.28862H7.5569Z" fill="#0E0E0E"/>
<path d="M25.0247 6.52045C24.8967 6.74945 24.8327 7.29837 24.8327 8.16721V11.2991C24.8327 12.2487 24.341 13.0738 23.3577 13.7743C22.3407 14.5084 21.0947 14.8755 19.6197 14.8755C17.5722 14.8755 15.9389 14.2323 14.7198 12.9458C13.5411 11.72 12.9518 10.1575 12.9518 8.25813C12.9518 6.23757 13.5512 4.55377 14.7501 3.20673C16.0904 1.6913 17.9359 0.933594 20.2864 0.933594C21.8557 0.933594 23.0984 1.23668 24.0144 1.84285L23.8527 4.82318L23.7719 4.84338C23.5362 4.43253 23.0715 4.09577 22.3777 3.8331C21.7177 3.5839 21.024 3.4593 20.2965 3.4593C19.5759 3.4593 18.9428 3.5738 18.3972 3.80279C17.8584 4.03179 17.4004 4.35845 17.0232 4.78276C16.2285 5.65161 15.8311 6.79996 15.8311 8.22782C15.8311 9.47384 16.1813 10.474 16.8818 11.2284C17.5823 11.976 18.4848 12.3498 19.5894 12.3498C20.8084 12.3498 21.6301 12.0332 22.0544 11.4001C22.1891 11.1981 22.2565 10.9691 22.2565 10.7131V9.03605H20.9532C20.2528 9.03605 19.8722 9.09667 19.8116 9.2179L19.7813 9.2078L19.6904 6.57096C19.879 6.62484 20.6434 6.65178 21.9837 6.65178H23.1758C23.9167 6.65178 24.5229 6.60127 24.9944 6.50024L25.0247 6.52045Z" fill="#0E0E0E"/>
<path d="M28.7122 14.7037C28.133 14.6498 27.4561 14.6229 26.6815 14.6229H25.8834L30.2781 2.30758C30.4734 1.75529 30.5711 1.43537 30.5711 1.34781C30.5711 1.25352 30.5677 1.19627 30.561 1.17606L30.5711 1.15586C31.0089 1.17606 31.4736 1.18616 31.9653 1.18616C32.3694 1.18616 32.8543 1.17943 33.4201 1.16596L33.4302 1.18616C33.4167 1.2131 33.41 1.25015 33.41 1.29729C33.41 1.42526 33.511 1.76539 33.7131 2.31768L38.1987 14.6532C38.064 14.6465 37.9058 14.6431 37.7239 14.6431C37.7239 14.6431 37.5488 14.6364 37.1986 14.6229C37.0302 14.6229 36.8786 14.6229 36.7439 14.6229H35.178L34.2283 11.7133H29.6619L28.7122 14.7037ZM33.4403 9.28862L31.9148 4.59081L30.4297 9.28862H33.4403Z" fill="#0E0E0E"/>
<path d="M45.5839 14.6633C45.3684 14.6364 45.0148 14.6229 44.5231 14.6229H43.4118C43.2299 14.6229 43.0649 14.6296 42.9167 14.6431L42.9066 14.6229C42.9336 14.5758 42.9471 14.5219 42.9471 14.4613C42.9471 14.4006 42.9403 14.3367 42.9268 14.2693C42.9201 14.202 42.8932 14.0807 42.846 13.9056C42.7989 13.7305 42.7248 13.4779 42.6238 13.1479L42.1994 11.7941L38.4412 1.14575C38.8588 1.17269 39.3909 1.18616 40.0374 1.18616C40.684 1.18616 41.0982 1.15922 41.2801 1.10534L44.321 10.2888L46.9882 1.14575C47.3923 1.17269 47.8907 1.18616 48.4834 1.18616C49.2916 1.18616 49.7631 1.15922 49.8978 1.10534L46.2103 11.7638C46.2103 11.7638 46.0924 12.1578 45.8567 12.9458C45.6613 13.6194 45.5637 14.0571 45.5637 14.2592C45.5637 14.4545 45.5772 14.5791 45.6041 14.633L45.5839 14.6633Z" fill="#0E0E0E"/>
<path d="M58.6569 12.1982C59.0745 12.1982 59.3641 12.1578 59.5258 12.077L59.5662 12.0871L59.4651 14.6229H51.8981V1.11544C52.08 1.12891 52.2821 1.13902 52.5043 1.14575L53.2115 1.16596C53.683 1.17943 54.1948 1.18616 54.7471 1.18616C56.2895 1.18616 57.815 1.15922 59.3237 1.10534C59.2496 1.69804 59.2126 2.48943 59.2126 3.4795C59.2126 3.58727 59.2193 3.66809 59.2328 3.72197L59.2126 3.75228C58.8623 3.65125 58.3639 3.60074 57.7174 3.60074H54.535V6.17695H56.9293C57.6702 6.17695 58.1147 6.15675 58.2629 6.11634L58.2932 8.61173C57.9699 8.57805 57.5523 8.56122 57.0405 8.56122H54.535V12.1982H58.6569Z" fill="#0E0E0E"/>
<path d="M21.0311 24.5164C20.7093 24.8383 20.205 24.9992 19.5181 24.9992C18.8515 24.9992 18.3069 24.7966 17.8845 24.3914C17.4563 23.9805 17.2422 23.4345 17.2422 22.7534C17.2422 22.0609 17.4534 21.4919 17.8758 21.0465C18.3241 20.578 18.9233 20.3438 19.6733 20.3438C20.205 20.3438 20.6504 20.4602 21.0096 20.693L20.8372 21.7965L20.807 21.7922C20.6691 21.6255 20.5239 21.5163 20.3716 21.4646C20.1245 21.3784 19.8774 21.3353 19.6302 21.3353C19.3831 21.3353 19.1891 21.3669 19.0483 21.4301C18.9075 21.4933 18.7868 21.581 18.6862 21.693C18.4851 21.9229 18.3845 22.2275 18.3845 22.6069C18.3845 23.2793 18.6172 23.719 19.0828 23.9259C19.2437 23.9949 19.4133 24.0293 19.5914 24.0293C19.7725 24.0293 19.9291 24.0135 20.0613 23.9819C20.1963 23.9503 20.3185 23.9072 20.4277 23.8526C20.6604 23.7377 20.8185 23.604 20.9018 23.4517L20.932 23.4647L21.0311 24.5164Z" fill="#0E0E0E"/>
<path d="M21.6044 22.706C21.6044 22.3899 21.6576 22.0882 21.7639 21.8008C21.8731 21.5106 22.0283 21.2577 22.2295 21.0421C22.6691 20.5766 23.2396 20.3438 23.9408 20.3438C24.6391 20.3438 25.1937 20.5637 25.6046 21.0033C25.9983 21.4229 26.1952 21.9675 26.1952 22.637C26.1952 23.3066 25.9926 23.8612 25.5874 24.3009C25.1592 24.7664 24.5916 24.9992 23.8847 24.9992C23.1548 24.9992 22.5829 24.7708 22.1691 24.3138C21.7927 23.8972 21.6044 23.3612 21.6044 22.706ZM22.6519 22.6801C22.6519 22.8612 22.6821 23.0365 22.7424 23.206C22.8028 23.3756 22.889 23.5207 23.0011 23.6414C23.2396 23.9029 23.5528 24.0337 23.9408 24.0337C24.3 24.0337 24.583 23.9058 24.7899 23.65C24.9911 23.4029 25.0917 23.081 25.0917 22.6845C25.0917 22.2821 24.9882 21.9574 24.7813 21.7103C24.56 21.4459 24.2569 21.3137 23.8718 21.3137C23.481 21.3137 23.1749 21.4545 22.9536 21.7361C22.7525 21.9948 22.6519 22.3094 22.6519 22.6801Z" fill="#0E0E0E"/>
<path d="M29.247 20.9258C29.224 21.0091 29.2125 21.2189 29.2125 21.5551V21.9344H28.1737V24.9346H27.1176V21.9344H26.484C26.4868 21.7448 26.4897 21.5766 26.4926 21.4301L26.5012 20.9689V20.9258H27.1176V20.6585C27.1176 19.9688 27.2785 19.4142 27.6004 18.9946C27.9366 18.5607 28.3993 18.3438 28.9884 18.3438C29.2384 18.3438 29.4036 18.361 29.4841 18.3955L29.4884 19.4774L29.4798 19.499C29.3706 19.3898 29.2312 19.3352 29.0617 19.3352C28.895 19.3352 28.7599 19.3639 28.6565 19.4214C28.553 19.476 28.4654 19.555 28.3935 19.6585C28.247 19.8654 28.1737 20.1484 28.1737 20.5076V20.9258H29.247Z" fill="#0E0E0E"/>
<path d="M32.1954 20.9258C32.1724 21.0091 32.1609 21.2189 32.1609 21.5551V21.9344H31.1221V24.9346H30.066V21.9344H29.4324C29.4352 21.7448 29.4381 21.5766 29.441 21.4301L29.4496 20.9689V20.9258H30.066V20.6585C30.066 19.9688 30.227 19.4142 30.5488 18.9946C30.885 18.5607 31.3477 18.3438 31.9368 18.3438C32.1868 18.3438 32.352 18.361 32.4325 18.3955L32.4368 19.4774L32.4282 19.499C32.319 19.3898 32.1796 19.3352 32.0101 19.3352C31.8434 19.3352 31.7083 19.3639 31.6049 19.4214C31.5014 19.476 31.4138 19.555 31.3419 19.6585C31.1954 19.8654 31.1221 20.1484 31.1221 20.5076V20.9258H32.1954Z" fill="#0E0E0E"/>
<path d="M32.7773 22.7189C32.7773 22.3827 32.8348 22.0709 32.9498 21.7836C33.0647 21.4962 33.2271 21.2447 33.4369 21.0292C33.8852 20.5723 34.4714 20.3438 35.1956 20.3438C35.8077 20.3438 36.2991 20.5464 36.6698 20.9516C37.0347 21.3424 37.2172 21.8338 37.2172 22.4258C37.2172 22.6528 37.2 22.808 37.1655 22.8914C36.8781 22.9718 36.2933 23.0121 35.4111 23.0121H33.8938C33.9685 23.3195 34.1424 23.5595 34.4154 23.7319C34.6884 23.9015 35.0433 23.9862 35.4801 23.9862C35.937 23.9862 36.3292 23.9043 36.6568 23.7405C36.743 23.6974 36.8077 23.6572 36.8508 23.6198C36.8451 23.7405 36.8379 23.8641 36.8293 23.9905L36.7818 24.663C36.5634 24.8124 36.21 24.9159 35.7214 24.9733C35.5778 24.9906 35.4398 24.9992 35.3076 24.9992C34.5777 24.9992 33.9742 24.7866 33.4972 24.3613C33.0173 23.9331 32.7773 23.3856 32.7773 22.7189ZM36.0706 22.1758C35.9528 21.558 35.6166 21.249 35.0619 21.249C34.6251 21.249 34.2932 21.4373 34.0662 21.8137C33.9972 21.9287 33.9441 22.0551 33.9067 22.1931C33.9757 22.1959 34.0605 22.1988 34.161 22.2017H34.48C34.5863 22.2046 34.6884 22.206 34.7861 22.206H35.0318C35.1783 22.206 35.322 22.2046 35.4628 22.2017L35.8163 22.1887C35.9111 22.1859 35.9959 22.1816 36.0706 22.1758Z" fill="#0E0E0E"/>
<path d="M37.9414 22.7189C37.9414 22.3827 37.9988 22.0709 38.1138 21.7836C38.2287 21.4962 38.3911 21.2447 38.6009 21.0292C39.0492 20.5723 39.6354 20.3438 40.3596 20.3438C40.9717 20.3438 41.4631 20.5464 41.8338 20.9516C42.1987 21.3424 42.3812 21.8338 42.3812 22.4258C42.3812 22.6528 42.364 22.808 42.3295 22.8914C42.0421 22.9718 41.4573 23.0121 40.5751 23.0121H39.0578C39.1325 23.3195 39.3064 23.5595 39.5794 23.7319C39.8524 23.9015 40.2073 23.9862 40.6441 23.9862C41.101 23.9862 41.4932 23.9043 41.8208 23.7405C41.9071 23.6974 41.9717 23.6572 42.0148 23.6198C42.0091 23.7405 42.0019 23.8641 41.9933 23.9905L41.9459 24.663C41.7275 24.8124 41.374 24.9159 40.8855 24.9733C40.7418 24.9906 40.6038 24.9992 40.4717 24.9992C39.7417 24.9992 39.1383 24.7866 38.6612 24.3613C38.1813 23.9331 37.9414 23.3856 37.9414 22.7189ZM41.2346 22.1758C41.1168 21.558 40.7806 21.249 40.226 21.249C39.7892 21.249 39.4572 21.4373 39.2302 21.8137C39.1612 21.9287 39.1081 22.0551 39.0707 22.1931C39.1397 22.1959 39.2245 22.1988 39.3251 22.2017H39.644C39.7504 22.2046 39.8524 22.206 39.9501 22.206H40.1958C40.3423 22.206 40.486 22.2046 40.6268 22.2017L40.9803 22.1887C41.0751 22.1859 41.1599 22.1816 41.2346 22.1758Z" fill="#0E0E0E"/>
</svg>
