<svg width="62" height="80" viewBox="0 0 62 80" fill="none" xmlns="http://www.w3.org/2000/svg">
<path d="M2.89887 69.4492C2.30529 69.394 1.61164 69.3664 0.817897 69.3664H0L4.50361 56.7459C4.70377 56.1799 4.80385 55.8521 4.80385 55.7624C4.80385 55.6657 4.8004 55.6071 4.7935 55.5864L4.80385 55.5657C5.25248 55.5864 5.72873 55.5967 6.23258 55.5967C6.6467 55.5967 7.14365 55.5898 7.72343 55.576L7.73378 55.5967C7.71998 55.6243 7.71308 55.6623 7.71308 55.7106C7.71308 55.8417 7.81661 56.1903 8.02367 56.7563L12.6205 69.3974C12.4824 69.3905 12.3202 69.3871 12.1339 69.3871C12.1339 69.3871 11.9544 69.3802 11.5955 69.3664C11.4229 69.3664 11.2676 69.3664 11.1296 69.3664H9.52487L8.55168 66.3847H3.87207L2.89887 69.4492ZM7.74413 63.8999L6.18081 59.0857L4.6589 63.8999H7.74413Z" fill="#0E0E0E"/>
<path d="M25.6447 61.0632C25.5135 61.2978 25.448 61.8604 25.448 62.7507V65.9602C25.448 66.9334 24.9441 67.7789 23.9364 68.4967C22.8942 69.249 21.6173 69.6252 20.1058 69.6252C18.0075 69.6252 16.3338 68.966 15.0845 67.6478C13.8766 66.3916 13.2727 64.7903 13.2727 62.8439C13.2727 60.7733 13.887 59.0478 15.1156 57.6673C16.4891 56.1144 18.3802 55.3379 20.7891 55.3379C22.3973 55.3379 23.6707 55.6485 24.6094 56.2697L24.4437 59.3238L24.3609 59.3445C24.1193 58.9235 23.6431 58.5784 22.9322 58.3092C22.2558 58.0539 21.5448 57.9262 20.7994 57.9262C20.0609 57.9262 19.4121 58.0435 18.853 58.2782C18.3009 58.5128 17.8315 58.8476 17.445 59.2824C16.6306 60.1728 16.2233 61.3496 16.2233 62.8128C16.2233 64.0897 16.5823 65.1147 17.3001 65.8877C18.0179 66.6539 18.9428 67.0369 20.0747 67.0369C21.324 67.0369 22.166 66.7125 22.6009 66.0637C22.7389 65.8567 22.8079 65.622 22.8079 65.3597V63.6411H21.4724C20.7546 63.6411 20.3646 63.7032 20.3025 63.8274L20.2714 63.8171L20.1782 61.1149C20.3715 61.1701 21.1549 61.1978 22.5284 61.1978H23.7501C24.5093 61.1978 25.1305 61.146 25.6136 61.0425L25.6447 61.0632Z" fill="#0E0E0E"/>
<path d="M29.4236 69.4492C28.83 69.394 28.1363 69.3664 27.3426 69.3664H26.5247L31.0283 56.7459C31.2285 56.1799 31.3285 55.8521 31.3285 55.7624C31.3285 55.6657 31.3251 55.6071 31.3182 55.5864L31.3285 55.5657C31.7772 55.5864 32.2534 55.5967 32.7573 55.5967C33.1714 55.5967 33.6684 55.5898 34.2481 55.576L34.2585 55.5967C34.2447 55.6243 34.2378 55.6623 34.2378 55.7106C34.2378 55.8417 34.3413 56.1903 34.5484 56.7563L39.1452 69.3974C39.0071 69.3905 38.8449 69.3871 38.6586 69.3871C38.6586 69.3871 38.4791 69.3802 38.1202 69.3664C37.9476 69.3664 37.7923 69.3664 37.6543 69.3664H36.0496L35.0764 66.3847H30.3968L29.4236 69.4492ZM34.2688 63.8999L32.7055 59.0857L31.1836 63.8999H34.2688Z" fill="#0E0E0E"/>
<path d="M46.7133 69.4078C46.4924 69.3802 46.1301 69.3664 45.6262 69.3664H44.4874C44.301 69.3664 44.1319 69.3733 43.9801 69.3871L43.9697 69.3664C43.9973 69.3181 44.0111 69.2628 44.0111 69.2007C44.0111 69.1386 44.0042 69.073 43.9904 69.004C43.9835 68.935 43.9559 68.8108 43.9076 68.6313C43.8593 68.4518 43.7834 68.193 43.6798 67.8548L43.245 66.4675L39.3936 55.5553C39.8216 55.5829 40.3668 55.5967 41.0294 55.5967C41.692 55.5967 42.1165 55.5691 42.3029 55.5139L45.4191 64.9249L48.1524 55.5553C48.5665 55.5829 49.0772 55.5967 49.6846 55.5967C50.5129 55.5967 50.996 55.5691 51.1341 55.5139L47.3552 66.4364C47.3552 66.4364 47.2344 66.8402 46.9928 67.6478C46.7927 68.338 46.6926 68.7866 46.6926 68.9937C46.6926 69.1938 46.7064 69.3215 46.734 69.3767L46.7133 69.4078Z" fill="#0E0E0E"/>
<path d="M60.1102 66.8816C60.5382 66.8816 60.8349 66.8402 61.0006 66.7574L61.042 66.7677L60.9385 69.3664H53.184V55.5242C53.3703 55.5381 53.5774 55.5484 53.8052 55.5553L54.5299 55.576C55.013 55.5898 55.5376 55.5967 56.1036 55.5967C57.6841 55.5967 59.2475 55.5691 60.7935 55.5139C60.7176 56.1213 60.6796 56.9323 60.6796 57.9469C60.6796 58.0573 60.6865 58.1401 60.7004 58.1954L60.6796 58.2264C60.3207 58.1229 59.81 58.0711 59.1474 58.0711H55.8862V60.7112H58.3398C59.0991 60.7112 59.5546 60.6905 59.7065 60.649L59.7375 63.2063C59.4062 63.1718 58.9783 63.1545 58.4537 63.1545H55.8862V66.8816H60.1102Z" fill="#0E0E0E"/>
<path d="M21.5518 79.5053C21.222 79.8351 20.7051 80 20.0013 80C19.3181 80 18.76 79.7924 18.3271 79.3772C17.8883 78.9561 17.6689 78.3966 17.6689 77.6986C17.6689 76.9889 17.8854 76.4058 18.3183 75.9494C18.7777 75.4693 19.3917 75.2293 20.1603 75.2293C20.7051 75.2293 21.1616 75.3486 21.5297 75.5871L21.353 76.718L21.3221 76.7136C21.1807 76.5427 21.032 76.4308 20.8759 76.3778C20.6227 76.2895 20.3694 76.2453 20.1161 76.2453C19.8629 76.2453 19.6641 76.2777 19.5198 76.3425C19.3755 76.4073 19.2518 76.4971 19.1488 76.612C18.9426 76.8475 18.8395 77.1597 18.8395 77.5484C18.8395 78.2375 19.0781 78.6881 19.5551 78.9001C19.7201 78.9708 19.8938 79.0061 20.0764 79.0061C20.2619 79.0061 20.4224 78.99 20.5579 78.9576C20.6963 78.9252 20.8214 78.881 20.9334 78.825C21.1719 78.7072 21.3339 78.5703 21.4193 78.4142L21.4502 78.4275L21.5518 79.5053Z" fill="#0E0E0E"/>
<path d="M22.1393 77.65C22.1393 77.3261 22.1938 77.0169 22.3027 76.7224C22.4146 76.425 22.5737 76.1658 22.7798 75.9449C23.2304 75.4679 23.8149 75.2293 24.5335 75.2293C25.2491 75.2293 25.8175 75.4546 26.2386 75.9052C26.642 76.3351 26.8437 76.8932 26.8437 77.5793C26.8437 78.2655 26.6361 78.8339 26.2209 79.2844C25.7821 79.7615 25.2005 80 24.4761 80C23.7281 80 23.142 79.7659 22.718 79.2977C22.3322 78.8707 22.1393 78.3215 22.1393 77.65ZM23.2127 77.6235C23.2127 77.8091 23.2436 77.9887 23.3055 78.1624C23.3673 78.3362 23.4557 78.4849 23.5705 78.6086C23.8149 78.8766 24.1359 79.0106 24.5335 79.0106C24.9016 79.0106 25.1917 78.8795 25.4037 78.6174C25.6098 78.3642 25.7129 78.0343 25.7129 77.6279C25.7129 77.2157 25.6069 76.8829 25.3949 76.6296C25.1681 76.3587 24.8574 76.2232 24.4628 76.2232C24.0623 76.2232 23.7487 76.3675 23.5219 76.6561C23.3158 76.9212 23.2127 77.2436 23.2127 77.6235Z" fill="#0E0E0E"/>
<path d="M29.9712 75.8257C29.9477 75.9111 29.9359 76.126 29.9359 76.4706V76.8593H28.8713V79.9338H27.7891V76.8593H27.1397C27.1427 76.665 27.1456 76.4927 27.1485 76.3425L27.1574 75.8698V75.8257H27.7891V75.5518C27.7891 74.845 27.954 74.2767 28.2838 73.8467C28.6283 73.402 29.1025 73.1797 29.7062 73.1797C29.9624 73.1797 30.1317 73.1974 30.2142 73.2327L30.2186 74.3414L30.2098 74.3635C30.0978 74.2516 29.955 74.1957 29.7813 74.1957C29.6105 74.1957 29.4721 74.2251 29.366 74.284C29.26 74.34 29.1702 74.421 29.0966 74.527C28.9464 74.739 28.8713 75.0291 28.8713 75.3972V75.8257H29.9712Z" fill="#0E0E0E"/>
<path d="M32.9927 75.8257C32.9691 75.9111 32.9573 76.126 32.9573 76.4706V76.8593H31.8928V79.9338H30.8105V76.8593H30.1612C30.1641 76.665 30.1671 76.4927 30.17 76.3425L30.1788 75.8698V75.8257H30.8105V75.5518C30.8105 74.845 30.9754 74.2767 31.3053 73.8467C31.6498 73.402 32.1239 73.1797 32.7276 73.1797C32.9838 73.1797 33.1532 73.1974 33.2356 73.2327L33.24 74.3414L33.2312 74.3635C33.1193 74.2516 32.9765 74.1957 32.8027 74.1957C32.6319 74.1957 32.4935 74.2251 32.3875 74.284C32.2815 74.34 32.1917 74.421 32.118 74.527C31.9678 74.739 31.8928 75.0291 31.8928 75.3972V75.8257H32.9927Z" fill="#0E0E0E"/>
<path d="M33.589 77.6633C33.589 77.3187 33.6479 76.9992 33.7657 76.7047C33.8835 76.4102 34.0499 76.1526 34.2649 75.9317C34.7243 75.4634 35.325 75.2293 36.0671 75.2293C36.6944 75.2293 37.198 75.4369 37.5779 75.8522C37.9519 76.2527 38.1389 76.7563 38.1389 77.3629C38.1389 77.5955 38.1212 77.7546 38.0859 77.84C37.7914 77.9224 37.1921 77.9637 36.288 77.9637H34.7331C34.8097 78.2788 34.9878 78.5247 35.2676 78.7014C35.5474 78.8751 35.9111 78.962 36.3587 78.962C36.8269 78.962 37.2289 78.878 37.5646 78.7102C37.653 78.666 37.7192 78.6248 37.7634 78.5865C37.7575 78.7102 37.7501 78.8368 37.7413 78.9664L37.6927 79.6555C37.4689 79.8086 37.1067 79.9146 36.606 79.9735C36.4588 79.9912 36.3174 80 36.182 80C35.434 80 34.8156 79.7821 34.3267 79.3463C33.8349 78.9075 33.589 78.3465 33.589 77.6633ZM36.9639 77.1067C36.8431 76.4735 36.4986 76.157 35.9302 76.157C35.4826 76.157 35.1424 76.3499 34.9098 76.7356C34.8391 76.8534 34.7846 76.983 34.7464 77.1244C34.817 77.1273 34.9039 77.1303 35.007 77.1332H35.3339C35.4428 77.1361 35.5474 77.1376 35.6475 77.1376H35.8993C36.0495 77.1376 36.1967 77.1361 36.341 77.1332L36.7032 77.1199C36.8004 77.117 36.8873 77.1126 36.9639 77.1067Z" fill="#0E0E0E"/>
<path d="M38.881 77.6633C38.881 77.3187 38.9399 76.9992 39.0577 76.7047C39.1755 76.4102 39.3419 76.1526 39.5568 75.9317C40.0162 75.4634 40.617 75.2293 41.3591 75.2293C41.9864 75.2293 42.4899 75.4369 42.8698 75.8522C43.2438 76.2527 43.4308 76.7563 43.4308 77.3629C43.4308 77.5955 43.4132 77.7546 43.3778 77.84C43.0833 77.9224 42.484 77.9637 41.58 77.9637H40.0251C40.1016 78.2788 40.2798 78.5247 40.5596 78.7014C40.8393 78.8751 41.203 78.962 41.6506 78.962C42.1189 78.962 42.5209 78.878 42.8566 78.7102C42.9449 78.666 43.0112 78.6248 43.0554 78.5865C43.0495 78.7102 43.0421 78.8368 43.0333 78.9664L42.9847 79.6555C42.7609 79.8086 42.3986 79.9146 41.898 79.9735C41.7508 79.9912 41.6094 80 41.4739 80C40.7259 80 40.1075 79.7821 39.6187 79.3463C39.1269 78.9075 38.881 78.3465 38.881 77.6633ZM42.2558 77.1067C42.1351 76.4735 41.7905 76.157 41.2222 76.157C40.7745 76.157 40.4344 76.3499 40.2018 76.7356C40.1311 76.8534 40.0766 76.983 40.0383 77.1244C40.109 77.1273 40.1959 77.1303 40.2989 77.1332H40.6258C40.7348 77.1361 40.8393 77.1376 40.9395 77.1376H41.1912C41.3414 77.1376 41.4887 77.1361 41.633 77.1332L41.9952 77.1199C42.0924 77.117 42.1793 77.1126 42.2558 77.1067Z" fill="#0E0E0E"/>
<circle cx="30.7426" cy="23.5697" r="23.5697" fill="#006837"/>
<path d="M30.801 11.6104L28.7119 18.4367C29.3603 19.8392 30.0471 21.3178 30.8019 22.7226C31.547 21.3345 32.2278 19.8689 32.89 18.4367L30.801 11.6104Z" fill="white"/>
<path d="M34.3413 18.9601C33.5189 20.7391 32.6703 22.5741 31.6943 24.2852C32.2627 25.215 32.8702 26.0798 33.5271 26.8283C34.4237 25.8002 35.2945 24.7147 36.1508 23.6333L38.1496 12.3164C36.8273 13.5823 35.6114 16.2126 34.3413 18.9601Z" fill="white"/>
<path d="M23.767 23.9813C21.6111 21.2519 19.5509 18.6435 17.7393 17.709L23.0516 30.3255C24.3677 33.4514 27.4097 35.4712 30.8013 35.4712C32.5178 35.4712 34.1449 34.9538 35.5039 34.0375C30.885 32.9935 27.1279 28.2364 23.767 23.9813Z" fill="white"/>
<path d="M27.2606 18.9601C25.9904 16.2126 24.7745 13.5823 23.4521 12.3164L25.451 23.6332C27.1242 25.7462 28.9009 27.9339 30.8013 29.632C31.3769 29.118 31.9392 28.5613 32.4906 27.9754C30.3063 25.5473 28.6944 22.0618 27.2606 18.9601Z" fill="white"/>
<path d="M37.8352 23.9814C35.9987 26.3065 34.1058 28.7029 32 30.6206C33.592 31.8198 35.269 32.6157 37.0414 32.7022C37.663 32.0134 38.1765 31.2143 38.5507 30.3256L43.8631 17.709C42.0514 18.6435 39.9911 21.2519 37.8352 23.9814Z" fill="white"/>
</svg>
